<?xml version="1.0" standalone="no"?>
<svg
          viewBox="0 0 500 500"
          xmlns="http://www.w3.org/2000/svg"
          preserveAspectRatio="none"
        >
          <path
            d="M34.4,-66.1C40.6,-56.1,38.9,-38.8,46,-26.5C53,-14.3,68.9,-7.1,75.2,3.6C81.5,14.4,78.2,28.8,68.7,36.8C59.1,44.8,43.4,46.4,30.9,47.1C18.5,47.8,9.2,47.7,-3.2,53.1C-15.6,58.6,-31.1,69.7,-36.5,65C-41.9,60.2,-37.2,39.4,-38.6,26C-40,12.5,-47.5,6.2,-52.5,-2.9C-57.5,-12,-60,-24,-55.1,-31.6C-50.3,-39.1,-38.2,-42.2,-27.8,-49.8C-17.4,-57.4,-8.7,-69.5,2.7,-74.2C14.1,-78.9,28.3,-76.2,34.4,-66.1Z"
            fill="#7a9e7e"
            transform="translate(230 260) scale(4) rotate(30)"
          />
          <path
            d="M25,-35.8C38.6,-24.5,60,-25.5,60.4,-20.5C60.7,-15.6,39.9,-4.7,29.8,4.5C19.6,13.6,20.2,21.1,17,28C13.8,34.8,6.9,41.2,0.3,40.8C-6.4,40.4,-12.7,33.4,-26.4,29.9C-40,26.4,-60.9,26.5,-63.4,20.3C-65.9,14.1,-49.9,1.5,-42.5,-11.6C-35.2,-24.6,-36.4,-38.2,-30.7,-52.1C-25.1,-66,-12.5,-80.3,-3.4,-75.6C5.7,-70.8,11.4,-47.2,25,-35.8Z"
            fill="#6ac06a"
            transform="translate(280 330) scale(4.8) rotate(0)"
          />
</svg>
